<?xml version="1.0" encoding="utf-8"?>
<!-- Generator: Adobe Illustrator 15.0.0, SVG Export Plug-In . SVG Version: 6.00 Build 0)  -->
<!DOCTYPE svg PUBLIC "-//W3C//DTD SVG 1.1//EN" "http://www.w3.org/Graphics/SVG/1.1/DTD/svg11.dtd">
<svg version="1.1" id="Layer_2" xmlns="http://www.w3.org/2000/svg" xmlns:xlink="http://www.w3.org/1999/xlink" x="0px" y="0px"
	 width="640px" height="640px" viewBox="0 0 640 640" enable-background="new 0 0 640 640" xml:space="preserve">
<polygon fill="#00FF00" points="322,404 322,340.5 337,323 361,323 361,318 336,318 320,336 304,318 279,317.834 279,322.834 
	303,323 318,340.5 318,404 "/>
<rect x="363.5" y="314.5" fill="none" stroke="#00FF00" stroke-width="5" stroke-miterlimit="10" width="65" height="11"/>
<rect x="317" y="235" fill="#00FF00" width="6" height="61"/>
<circle fill="none" stroke="#00FF00" stroke-width="3" stroke-miterlimit="10" cx="320" cy="320" r="4.5"/>
<rect x="211.5" y="314.5" fill="none" stroke="#00FF00" stroke-width="5" stroke-miterlimit="10" width="65" height="11"/>
<rect y="19" fill="none" width="640" height="640"/>
<polygon fill="#00FF00" points="160,320 139,333 139,307 "/>
<polygon fill="#00FF00" points="480,320 501,333 501,307 "/>
<polygon fill="#00FF00" points="320,160 307,139 333,139 "/>
</svg>
